<svg width="100" height="80" viewBox="0 0 100 80" fill="none" xmlns="http://www.w3.org/2000/svg">
<path d="M0 0H100V80L51.2839 63.6735L0 80V0Z" fill="#1391E6"/>
<path d="M18.72 43.488C18.4747 43.488 18.2613 43.3973 18.08 43.216C17.8987 43.0453 17.808 42.8373 17.808 42.592V36.976C17.808 36.9547 17.7973 36.944 17.776 36.944C17.7653 36.9333 17.7547 36.9333 17.744 36.944L17.36 37.52C17.2533 37.6693 17.1093 37.7227 16.928 37.68C16.7573 37.6373 16.6507 37.5253 16.608 37.344L16.448 36.64C16.32 36.0853 16.4267 35.5413 16.768 35.008C17.6747 33.5893 18.368 31.8613 18.848 29.824C18.9013 29.5787 19.0347 29.3867 19.248 29.248C19.4613 29.0987 19.6907 29.0453 19.936 29.088L20.112 29.12C20.3573 29.1733 20.5493 29.3013 20.688 29.504C20.8373 29.696 20.8907 29.9147 20.848 30.16C20.6027 31.344 20.2933 32.3893 19.92 33.296C19.888 33.3813 19.872 33.472 19.872 33.568V42.592C19.872 42.8373 19.7813 43.0453 19.6 43.216C19.4187 43.3973 19.2053 43.488 18.96 43.488H18.72ZM31.024 40.592C31.2373 40.752 31.376 40.96 31.44 41.216C31.504 41.4613 31.4773 41.7013 31.36 41.936L31.28 42.112C31.1733 42.3253 31.008 42.4587 30.784 42.512C30.56 42.5653 30.3573 42.5173 30.176 42.368C29.0027 41.3867 28.0107 40.3413 27.2 39.232C27.1893 39.2107 27.1733 39.2053 27.152 39.216C27.1307 39.216 27.12 39.2267 27.12 39.248V42.56C27.12 42.8053 27.0293 43.0187 26.848 43.2C26.6667 43.3813 26.4533 43.472 26.208 43.472H25.888C25.6427 43.472 25.4293 43.3813 25.248 43.2C25.0773 43.0187 24.992 42.8053 24.992 42.56V39.312C24.992 39.2907 24.9813 39.2747 24.96 39.264C24.9493 39.2533 24.9333 39.2587 24.912 39.28C24.0693 40.4107 23.0987 41.4293 22 42.336C21.8187 42.4853 21.6107 42.5333 21.376 42.48C21.1413 42.4373 20.9653 42.3093 20.848 42.096L20.72 41.872C20.6027 41.648 20.5707 41.408 20.624 41.152C20.688 40.896 20.8267 40.6933 21.04 40.544C22.16 39.7227 23.1093 38.832 23.888 37.872C23.9413 37.7973 23.9253 37.76 23.84 37.76H21.68C21.4453 37.76 21.2427 37.68 21.072 37.52C20.912 37.3493 20.832 37.1467 20.832 36.912C20.832 36.6773 20.912 36.4747 21.072 36.304C21.2427 36.1333 21.4453 36.048 21.68 36.048H24.848C24.944 36.048 24.992 36.0053 24.992 35.92V35.184C24.992 35.088 24.944 35.04 24.848 35.04H23.568H22.4C22.1547 35.04 21.9413 34.9493 21.76 34.768C21.5787 34.5867 21.488 34.3733 21.488 34.128V30.24C21.488 29.9947 21.5787 29.7813 21.76 29.6C21.9413 29.4187 22.1547 29.328 22.4 29.328H29.84C30.0853 29.328 30.2987 29.4187 30.48 29.6C30.6613 29.7813 30.752 29.9947 30.752 30.24V34.128C30.752 34.3733 30.6613 34.5867 30.48 34.768C30.2987 34.9493 30.0853 35.04 29.84 35.04H27.264C27.168 35.04 27.12 35.088 27.12 35.184V35.92C27.12 36.0053 27.168 36.048 27.264 36.048H30.48C30.7147 36.048 30.912 36.1333 31.072 36.304C31.2427 36.4747 31.328 36.6773 31.328 36.912C31.328 37.1467 31.2427 37.3493 31.072 37.52C30.912 37.68 30.7147 37.76 30.48 37.76H28.224C28.1387 37.76 28.1227 37.7973 28.176 37.872C28.912 38.8 29.8613 39.7067 31.024 40.592ZM23.712 33.392H28.528C28.624 33.392 28.672 33.344 28.672 33.248V31.184C28.672 31.088 28.624 31.04 28.528 31.04H23.712C23.616 31.04 23.568 31.088 23.568 31.184V33.248C23.568 33.344 23.616 33.392 23.712 33.392ZM35.28 43.44C35.0347 43.44 34.8213 43.3493 34.64 43.168C34.4587 42.9867 34.368 42.7733 34.368 42.528V30.272C34.368 30.0267 34.4587 29.8133 34.64 29.632C34.8213 29.4507 35.0347 29.36 35.28 29.36H38.992C39.216 29.36 39.4027 29.44 39.552 29.6C39.712 29.7493 39.792 29.936 39.792 30.16C39.792 30.5333 39.7387 30.9333 39.632 31.36C39.6213 31.3813 39.6267 31.4027 39.648 31.424C39.6693 31.4347 39.6907 31.4293 39.712 31.408C40.544 30.8427 41.328 30.1973 42.064 29.472C42.512 29.0453 43.024 28.832 43.6 28.832H43.76C44.336 28.832 44.848 29.0453 45.296 29.472C46.2347 30.3787 47.2267 31.1627 48.272 31.824C48.4853 31.9627 48.6347 32.1547 48.72 32.4C48.8053 32.6453 48.7947 32.8907 48.688 33.136L48.656 33.216C48.56 33.4293 48.4 33.5733 48.176 33.648C47.952 33.7227 47.7387 33.696 47.536 33.568C47.0453 33.2267 46.7413 33.0133 46.624 32.928C46.56 32.8853 46.512 32.896 46.48 32.96C46.3413 33.2587 46.1013 33.408 45.76 33.408H44.8C44.7147 33.408 44.672 33.456 44.672 33.552V34.08C44.672 34.1653 44.7147 34.208 44.8 34.208H47.152C47.3973 34.208 47.6053 34.2987 47.776 34.48C47.9573 34.6613 48.048 34.8747 48.048 35.12V38.272C48.048 38.5173 47.9573 38.7307 47.776 38.912C47.6053 39.0827 47.3973 39.168 47.152 39.168H45.104C45.072 39.168 45.0453 39.184 45.024 39.216C45.0027 39.248 45.0027 39.2747 45.024 39.296C45.536 40.16 46.576 40.8587 48.144 41.392C48.3787 41.4773 48.5493 41.6267 48.656 41.84C48.7627 42.0427 48.768 42.256 48.672 42.48L48.608 42.608C48.5013 42.8427 48.3307 43.0133 48.096 43.12C47.8613 43.2267 47.6267 43.232 47.392 43.136C45.856 42.5067 44.672 41.6213 43.84 40.48C43.7867 40.4053 43.728 40.4 43.664 40.464C42.7573 41.5947 41.3707 42.4907 39.504 43.152C39.2587 43.2373 39.0187 43.2267 38.784 43.12C38.5493 43.0133 38.3787 42.8427 38.272 42.608L38.208 42.48C38.112 42.256 38.1173 42.0427 38.224 41.84C38.3307 41.6267 38.5013 41.4827 38.736 41.408C40.5173 40.8533 41.6747 40.1493 42.208 39.296C42.2293 39.2747 42.2293 39.248 42.208 39.216C42.1973 39.184 42.176 39.168 42.144 39.168H40.8H40.048C39.8027 39.168 39.6053 39.0987 39.456 38.96C39.392 38.9173 39.3493 38.928 39.328 38.992C39.1467 39.888 38.592 40.4 37.664 40.528C37.408 40.56 37.168 40.496 36.944 40.336C36.7307 40.176 36.5813 39.9627 36.496 39.696L36.368 39.28C36.3573 39.28 36.3413 39.2853 36.32 39.296V42.528C36.32 42.7733 36.2293 42.9867 36.048 43.168C35.8667 43.3493 35.6533 43.44 35.408 43.44H35.28ZM40.8 37.552C40.8 37.6373 40.848 37.68 40.944 37.68H42.448C42.544 37.68 42.592 37.6373 42.592 37.552V35.888C42.592 35.8027 42.544 35.76 42.448 35.76H40.944C40.848 35.76 40.8 35.8027 40.8 35.888V37.552ZM46.208 35.76H44.8C44.7147 35.76 44.672 35.8027 44.672 35.888V37.552C44.672 37.6373 44.7147 37.68 44.8 37.68H46.208C46.304 37.68 46.352 37.6373 46.352 37.552V35.888C46.352 35.8027 46.304 35.76 46.208 35.76ZM43.6 30.272C43.0347 30.8907 42.56 31.376 42.176 31.728C42.1547 31.7493 42.1493 31.7707 42.16 31.792C42.1707 31.8027 42.1867 31.808 42.208 31.808H45.152C45.1733 31.808 45.1893 31.8027 45.2 31.792C45.2107 31.7707 45.2053 31.7493 45.184 31.728C44.6507 31.2267 44.1813 30.7467 43.776 30.288C43.712 30.224 43.6533 30.2187 43.6 30.272ZM38.256 34.624C38.224 34.7093 38.2293 34.784 38.272 34.848C38.624 35.328 38.9013 35.824 39.104 36.336C39.1147 36.3467 39.1253 36.352 39.136 36.352C39.1467 36.352 39.152 36.3413 39.152 36.32V35.12C39.152 34.8747 39.2373 34.6613 39.408 34.48C39.5893 34.2987 39.8027 34.208 40.048 34.208H42.448C42.544 34.208 42.592 34.1653 42.592 34.08V33.552C42.592 33.456 42.544 33.408 42.448 33.408H41.552C41.2213 33.408 40.9867 33.2693 40.848 32.992C40.8373 32.96 40.8107 32.944 40.768 32.944C40.7253 32.9333 40.6933 32.9387 40.672 32.96C40.416 33.152 40.1387 33.3493 39.84 33.552C39.5413 33.7547 39.2427 33.744 38.944 33.52C38.88 33.456 38.8267 33.4613 38.784 33.536C38.5493 34.048 38.3733 34.4107 38.256 34.624ZM36.32 31.104V34.416C36.32 34.4373 36.3253 34.448 36.336 34.448C36.3573 34.448 36.3733 34.4427 36.384 34.432C36.9813 33.3333 37.4613 32.2187 37.824 31.088C37.8453 31.0027 37.8133 30.96 37.728 30.96H36.464C36.368 30.96 36.32 31.008 36.32 31.104ZM36.32 35.12V38.768C36.32 38.864 36.368 38.912 36.464 38.912H36.608C36.9707 38.912 37.2107 38.8373 37.328 38.688C37.456 38.528 37.52 38.2027 37.52 37.712C37.52 37.2427 37.44 36.8213 37.28 36.448C37.1307 36.064 36.8373 35.6107 36.4 35.088C36.3787 35.0667 36.3573 35.0613 36.336 35.072C36.3253 35.0827 36.32 35.0987 36.32 35.12ZM60.848 39.312C60.6133 39.3973 60.3787 39.3867 60.144 39.28C59.92 39.1627 59.7653 38.9867 59.68 38.752C59.2853 37.7387 58.8533 36.752 58.384 35.792C58.2773 35.568 58.2667 35.344 58.352 35.12C58.4373 34.8853 58.592 34.72 58.816 34.624L58.976 34.544C59.2107 34.4373 59.4453 34.4267 59.68 34.512C59.9147 34.5973 60.0853 34.7573 60.192 34.992C60.6827 36.048 61.1253 37.0773 61.52 38.08C61.6053 38.3147 61.5947 38.5493 61.488 38.784C61.392 39.008 61.2267 39.1627 60.992 39.248L60.848 39.312ZM52.144 32.88C51.8987 32.88 51.6853 32.7893 51.504 32.608C51.3333 32.4267 51.248 32.2133 51.248 31.968C51.248 31.7227 51.3333 31.5147 51.504 31.344C51.6853 31.1627 51.8987 31.072 52.144 31.072H53.616C53.7013 31.072 53.744 31.024 53.744 30.928V29.792C53.744 29.5467 53.8347 29.3333 54.016 29.152C54.1973 28.9707 54.4107 28.88 54.656 28.88H54.976C55.2213 28.88 55.4347 28.9707 55.616 29.152C55.7973 29.3333 55.888 29.5467 55.888 29.792V30.928C55.888 31.024 55.9307 31.072 56.016 31.072H57.552C57.7653 31.072 57.9573 31.1413 58.128 31.28C58.2987 31.4187 58.4053 31.5893 58.448 31.792C58.4693 31.8453 58.5067 31.8507 58.56 31.808C58.7413 31.648 58.944 31.568 59.168 31.568H62.528C62.624 31.568 62.672 31.5253 62.672 31.44V29.888C62.672 29.6427 62.7573 29.4347 62.928 29.264C63.1093 29.0827 63.3227 28.992 63.568 28.992H63.888C64.1333 28.992 64.3467 29.0827 64.528 29.264C64.7093 29.4347 64.8 29.6427 64.8 29.888V31.44C64.8 31.5253 64.848 31.568 64.944 31.568H65.12C65.3653 31.568 65.5787 31.6587 65.76 31.84C65.9413 32.0213 66.032 32.2347 66.032 32.48C66.032 32.7253 65.9413 32.9387 65.76 33.12C65.5787 33.3013 65.3653 33.392 65.12 33.392H64.944C64.848 33.392 64.8 33.4347 64.8 33.52V40.8C64.8 41.2373 64.7893 41.584 64.768 41.84C64.7573 42.0853 64.7147 42.3147 64.64 42.528C64.5653 42.752 64.48 42.912 64.384 43.008C64.288 43.104 64.128 43.184 63.904 43.248C63.68 43.3227 63.44 43.3653 63.184 43.376C62.928 43.3973 62.576 43.408 62.128 43.408C61.5307 43.408 61.008 43.3973 60.56 43.376C60.304 43.3653 60.0853 43.2693 59.904 43.088C59.7227 42.9067 59.6213 42.688 59.6 42.432C59.5893 42.1973 59.6693 41.9947 59.84 41.824C60.0107 41.6427 60.2187 41.5573 60.464 41.568C61.2107 41.5893 61.6427 41.6 61.76 41.6C62.1973 41.6 62.4587 41.568 62.544 41.504C62.6293 41.4293 62.672 41.2107 62.672 40.848V33.52C62.672 33.4347 62.624 33.392 62.528 33.392H59.168C58.9547 33.392 58.7627 33.328 58.592 33.2C58.432 33.0613 58.3307 32.8853 58.288 32.672C58.2667 32.608 58.224 32.5973 58.16 32.64C57.9787 32.8 57.776 32.88 57.552 32.88H57.536C57.44 32.88 57.392 32.928 57.392 33.024C57.328 34.944 57.056 36.5707 56.576 37.904C56.544 37.9893 56.5547 38.0693 56.608 38.144C57.0133 38.6667 57.536 39.3867 58.176 40.304C58.3147 40.5173 58.3627 40.752 58.32 41.008C58.288 41.2533 58.1707 41.456 57.968 41.616L57.824 41.728C57.632 41.8773 57.4133 41.936 57.168 41.904C56.9227 41.8613 56.7307 41.7387 56.592 41.536C55.9947 40.6827 55.664 40.2133 55.6 40.128C55.5573 40.064 55.5093 40.0693 55.456 40.144C54.8053 41.1147 53.9733 41.9947 52.96 42.784C52.768 42.9333 52.5493 42.9867 52.304 42.944C52.0587 42.9013 51.8667 42.7733 51.728 42.56L51.568 42.32C51.4293 42.1173 51.3813 41.888 51.424 41.632C51.4667 41.376 51.5893 41.168 51.792 41.008C52.8267 40.1653 53.6 39.2853 54.112 38.368C54.144 38.304 54.1333 38.2347 54.08 38.16C53.28 37.168 52.5653 36.3467 51.936 35.696C51.7653 35.5147 51.68 35.3013 51.68 35.056C51.68 34.8107 51.7707 34.5973 51.952 34.416L52.08 34.288C52.2507 34.1067 52.464 34.0213 52.72 34.032C52.976 34.032 53.1893 34.1227 53.36 34.304C53.808 34.784 54.3093 35.344 54.864 35.984C54.8853 36.0053 54.9067 36.016 54.928 36.016C54.9493 36.0053 54.9653 35.9893 54.976 35.968C55.1573 35.1147 55.2693 34.1333 55.312 33.024C55.312 32.928 55.264 32.88 55.168 32.88H52.144ZM68.752 34.592L68.672 34.336C68.576 34.0907 68.56 33.84 68.624 33.584C68.6987 33.328 68.8373 33.1093 69.04 32.928C70.2773 31.872 71.28 30.6987 72.048 29.408C72.3573 28.8853 72.8053 28.656 73.392 28.72L73.952 28.784C74.1013 28.8053 74.2133 28.8853 74.288 29.024C74.3733 29.152 74.384 29.2853 74.32 29.424C74.288 29.488 74.304 29.52 74.368 29.52H78.96C79.1733 29.52 79.3547 29.5947 79.504 29.744C79.6533 29.8933 79.728 30.0747 79.728 30.288V30.336C79.728 30.8587 79.568 31.2853 79.248 31.616C79.2267 31.6267 79.2213 31.6427 79.232 31.664C79.2427 31.6853 79.2587 31.696 79.28 31.696H81.648C81.8933 31.696 82.1067 31.7867 82.288 31.968C82.4693 32.1493 82.56 32.3627 82.56 32.608V34.944C82.56 35.1893 82.4693 35.4027 82.288 35.584C82.1067 35.7653 81.8933 35.856 81.648 35.856H79.008C78.9333 35.856 78.9067 35.8987 78.928 35.984C79.1733 36.624 79.4453 37.1947 79.744 37.696C79.7547 37.728 79.7813 37.744 79.824 37.744C79.8773 37.744 79.9147 37.7333 79.936 37.712C80.2453 37.424 80.5973 37.0773 80.992 36.672C81.1733 36.4907 81.3867 36.3893 81.632 36.368C81.8773 36.336 82.1067 36.3893 82.32 36.528C82.5227 36.6667 82.6347 36.8587 82.656 37.104C82.688 37.3387 82.624 37.5467 82.464 37.728C81.9627 38.304 81.4773 38.7947 81.008 39.2C80.944 39.2533 80.9387 39.3173 80.992 39.392C81.5253 40.0107 82.1227 40.576 82.784 41.088C82.9867 41.2373 83.104 41.4347 83.136 41.68C83.1787 41.9253 83.1307 42.1493 82.992 42.352L82.848 42.528C82.6987 42.7307 82.5013 42.8533 82.256 42.896C82.0213 42.9387 81.8027 42.8853 81.6 42.736C80.5867 41.9253 79.6693 40.928 78.848 39.744C78.0373 38.56 77.424 37.312 77.008 36C76.9653 35.904 76.9067 35.856 76.832 35.856H76.16C76.1387 35.856 76.1173 35.8667 76.096 35.888C76.0853 35.9093 76.0907 35.9307 76.112 35.952C77.424 37.392 78.08 38.96 78.08 40.656C78.08 41.7227 77.936 42.448 77.648 42.832C77.36 43.216 76.848 43.408 76.112 43.408C75.6853 43.408 75.0933 43.392 74.336 43.36C74.08 43.3493 73.8613 43.2533 73.68 43.072C73.5093 42.8907 73.4187 42.672 73.408 42.416L73.392 41.92C73.392 41.824 73.3493 41.7973 73.264 41.84C72.2293 42.3413 71.2053 42.7627 70.192 43.104C69.9467 43.1893 69.7013 43.1787 69.456 43.072C69.2213 42.976 69.0507 42.8053 68.944 42.56C68.848 42.3467 68.848 42.1333 68.944 41.92C69.04 41.696 69.2053 41.5467 69.44 41.472C72.0213 40.6827 74.048 39.776 75.52 38.752C75.5947 38.6987 75.616 38.6293 75.584 38.544C75.552 38.4587 75.4933 38.3307 75.408 38.16C75.3653 38.0853 75.3067 38.0747 75.232 38.128C73.8453 39.0347 72.16 39.824 70.176 40.496C69.952 40.5707 69.728 40.56 69.504 40.464C69.28 40.3573 69.12 40.192 69.024 39.968C68.9387 39.7653 68.944 39.568 69.04 39.376C69.136 39.1733 69.2907 39.04 69.504 38.976C71.4667 38.4107 73.0987 37.7493 74.4 36.992C74.432 36.9813 74.448 36.9547 74.448 36.912C74.4587 36.8693 74.4533 36.8373 74.432 36.816C74.2933 36.6773 74.1867 36.576 74.112 36.512C74.0587 36.4587 73.984 36.4533 73.888 36.496C72.8 37.0507 71.5893 37.5413 70.256 37.968C70.0427 38.0427 69.8293 38.0373 69.616 37.952C69.4027 37.856 69.2427 37.7013 69.136 37.488C69.0507 37.3067 69.0507 37.1253 69.136 36.944C69.2213 36.752 69.3653 36.6293 69.568 36.576C70.368 36.3733 71.104 36.1493 71.776 35.904C71.7867 35.8827 71.7867 35.8667 71.776 35.856H70.768C70.5227 35.856 70.3093 35.7653 70.128 35.584C69.9573 35.4027 69.872 35.1893 69.872 34.944V34.928C69.872 34.9067 69.856 34.8907 69.824 34.88C69.8027 34.8693 69.7813 34.8693 69.76 34.88C69.5787 35.0187 69.3867 35.0613 69.184 35.008C68.9813 34.944 68.8373 34.8053 68.752 34.592ZM75.408 41.728C75.6747 41.728 75.84 41.68 75.904 41.584C75.968 41.4773 76 41.1893 76 40.72C76 40.6773 75.9947 40.6187 75.984 40.544C75.984 40.4693 75.984 40.416 75.984 40.384C75.984 40.352 75.968 40.3307 75.936 40.32C75.904 40.2987 75.8773 40.2987 75.856 40.32C75.152 40.8213 74.4533 41.248 73.76 41.6C73.7493 41.6107 73.744 41.6267 73.744 41.648C73.744 41.6587 73.7547 41.664 73.776 41.664C74.448 41.7067 74.992 41.728 75.408 41.728ZM77.344 33.344C77.248 33.344 77.2 33.3867 77.2 33.472V34.24C77.2 34.336 77.248 34.384 77.344 34.384H80.336C80.432 34.384 80.48 34.336 80.48 34.24V33.472C80.48 33.3867 80.432 33.344 80.336 33.344H77.344ZM73.008 31.584C72.9547 31.6587 72.9707 31.696 73.056 31.696H76.464C76.5707 31.696 76.656 31.664 76.72 31.6C76.9333 31.408 77.088 31.264 77.184 31.168C77.2053 31.1573 77.2107 31.1413 77.2 31.12C77.1893 31.088 77.1733 31.072 77.152 31.072H73.504C73.4187 31.072 73.3493 31.1093 73.296 31.184C73.264 31.2267 73.216 31.296 73.152 31.392C73.088 31.4773 73.04 31.5413 73.008 31.584ZM71.888 33.472V34.24C71.888 34.336 71.936 34.384 72.032 34.384H75.04C75.1253 34.384 75.168 34.336 75.168 34.24V33.472C75.168 33.3867 75.1253 33.344 75.04 33.344H72.032C71.936 33.344 71.888 33.3867 71.888 33.472Z" fill="white"/>
</svg>
