<svg width="24" height="24" viewBox="0 0 24 24" fill="none" xmlns="http://www.w3.org/2000/svg">
<path d="M8.36761 11.232V9.55462C8.36761 9.27672 8.59292 9.05141 8.87082 9.05141H10.5482C10.8261 9.05141 11.0514 9.27672 11.0514 9.55462V11.232C11.0514 11.5099 10.8261 11.7352 10.5482 11.7352H8.87082C8.59292 11.7352 8.36761 11.5099 8.36761 11.232ZM14.2384 11.7352H15.9158C16.1937 11.7352 16.419 11.5099 16.419 11.232V9.55462C16.419 9.27672 16.1937 9.05141 15.9158 9.05141H14.2384C13.9605 9.05141 13.7352 9.27672 13.7352 9.55462V11.232C13.7352 11.5099 13.9605 11.7352 14.2384 11.7352ZM11.0514 15.2577V13.5803C11.0514 13.3024 10.8261 13.0771 10.5482 13.0771H8.87082C8.59292 13.0771 8.36761 13.3024 8.36761 13.5803V15.2577C8.36761 15.5356 8.59292 15.7609 8.87082 15.7609H10.5482C10.8261 15.7609 11.0514 15.5356 11.0514 15.2577ZM14.2384 15.7609H15.9158C16.1937 15.7609 16.419 15.5356 16.419 15.2577V13.5803C16.419 13.3024 16.1937 13.0771 15.9158 13.0771H14.2384C13.9605 13.0771 13.7352 13.3024 13.7352 13.5803V15.2577C13.7352 15.5356 13.9605 15.7609 14.2384 15.7609ZM21.7866 20.9608V22.4704H3V20.9608C3 20.6829 3.22531 20.4576 3.50321 20.4576H4.32093V4.56589C4.32093 4.07874 4.77152 3.6838 5.32736 3.6838H9.03856V2.00643C9.03856 1.45059 9.48914 1 10.045 1H14.7416C15.2975 1 15.7481 1.45059 15.7481 2.00643V3.6838H19.4593C20.0151 3.6838 20.4657 4.07874 20.4657 4.56589V20.4576H21.2834C21.5613 20.4576 21.7866 20.6829 21.7866 20.9608ZM6.33379 20.4156H11.0514V17.606C11.0514 17.3281 11.2767 17.1028 11.5546 17.1028H13.232C13.5099 17.1028 13.7352 17.3281 13.7352 17.606V20.4156H18.4528V5.69666H15.7481V6.70308C15.7481 7.25892 15.2975 7.70951 14.7416 7.70951H10.045C9.48914 7.70951 9.03856 7.25892 9.03856 6.70308V5.69666H6.33379V20.4156ZM14.1546 3.6838H13.0643V2.59351C13.0643 2.45455 12.9516 2.3419 12.8127 2.3419H11.974C11.835 2.3419 11.7224 2.45455 11.7224 2.59351V3.6838H10.6321C10.4931 3.6838 10.3805 3.79645 10.3805 3.93541V4.7741C10.3805 4.91306 10.4931 5.0257 10.6321 5.0257H11.7224V6.116C11.7224 6.25496 11.835 6.36761 11.974 6.36761H12.8127C12.9516 6.36761 13.0643 6.25496 13.0643 6.116V5.0257H14.1546C14.2935 5.0257 14.4062 4.91306 14.4062 4.7741V3.93541C14.4062 3.79645 14.2935 3.6838 14.1546 3.6838Z" fill="#393939"/>
</svg>
