<svg width="404" height="41" viewBox="0 0 404 41" fill="none" xmlns="http://www.w3.org/2000/svg">
<path d="M72.1601 5.64697H78.9665C82.9375 5.67162 84.8095 7.57809 84.5827 11.3676C84.4123 12.8536 84.1855 14.5989 83.9024 16.6049C85.1208 16.9517 86.3548 17.3735 87.6028 17.868C87.7451 16.8029 87.8873 15.3674 88.0282 13.5594C88.1423 11.925 89.0636 11.107 90.7947 11.107C92.7513 11.1561 93.7008 11.974 93.6444 13.5594C93.4458 16.2336 93.2331 18.4008 93.0063 20.0599L94.7079 20.9147C96.7785 21.7571 97.4026 23.2431 96.58 25.3721C95.615 26.8836 94.3107 27.2306 92.6667 26.4126L91.9428 26.0781C91.5737 27.7128 90.737 30.2514 89.4326 33.694C88.5254 35.303 87.1634 35.7987 85.349 35.18C83.4769 34.3867 82.9657 33.1984 83.8164 31.613C85.1786 28.7163 86.0717 26.0535 86.4971 23.6267C85.8448 23.355 85.2067 23.0998 84.5827 22.8649C83.9587 22.6299 83.3487 22.4128 82.7529 22.2148L82.7106 22.2899C82.257 23.9232 81.5755 25.6072 80.6682 27.3413C79.7609 29.0756 78.6758 30.5368 77.4137 31.7248C76.1515 32.9143 74.7407 33.5576 73.1813 33.6572C70.9685 33.6315 69.3156 32.7531 68.2239 31.0188C67.1322 29.2847 66.7708 26.9698 67.1398 24.0721C67.423 22.4374 68.1534 21.0077 69.3309 19.7813C70.5072 18.5563 71.8693 17.5895 73.4146 16.8834C74.9598 16.1786 76.6127 15.7881 78.3706 15.7143C78.4848 14.9222 78.5835 14.1534 78.6692 13.4107C78.7821 12.2213 78.3003 11.615 77.2226 11.5902H72.1601C69.8909 11.5902 68.7557 10.5991 68.7557 8.6186C68.7557 6.6371 69.8909 5.64697 72.1601 5.64697ZM73.3941 27.6759C74.0168 27.6501 74.5638 27.3166 75.0316 26.6723C75.4992 26.029 75.8888 25.2861 76.2014 24.4435C76.5128 23.601 76.755 22.8525 76.9241 22.1957C77.0944 21.5402 77.1804 21.2 77.1804 21.1742C76.2438 21.1742 75.4211 21.3858 74.7125 21.8064C74.0027 22.2272 73.4709 22.7228 73.1173 23.2923C72.7624 23.8618 72.5138 24.3698 72.3729 24.815C72.1729 25.7818 72.2229 26.4989 72.5215 26.9698C72.8187 27.441 73.1096 27.6759 73.3941 27.6759Z" fill="#1391E6"/>
<path d="M100.623 10.9964C100.623 9.13908 101.686 8.2106 103.813 8.2106H105.982L106.45 5.98063C106.763 4.66827 107.869 4.00025 109.769 3.97449C111.755 4.07428 112.577 4.84162 112.237 6.2783C112.066 6.87226 111.939 7.51573 111.854 8.2106H114.066C116.193 8.2106 117.257 9.13908 117.257 10.9964C117.257 12.8783 116.193 13.8193 114.066 13.8193H110.832C108.819 21.2238 107.614 25.6702 107.216 27.1558C106.791 28.617 105.599 29.2111 103.643 28.9393C101.714 28.5679 100.976 27.5764 101.43 25.9676C103.217 20.2717 104.351 16.2224 104.834 13.8193H103.813C101.686 13.8193 100.623 12.8783 100.623 10.9964ZM124.575 17.3861V21.0269C125.851 21.4229 127.438 22.0785 129.34 22.9949C130.559 23.7871 130.729 24.9271 129.85 26.4128C128.857 27.6269 127.667 27.8741 126.276 27.1558C125.879 26.9824 125.311 26.7721 124.575 26.5248V28.9393C124.575 30.8212 124.213 32.2387 123.489 33.1931C122.767 34.1452 121.894 34.7896 120.873 35.1243C119.852 35.4589 118.816 35.6254 117.767 35.6254C116.406 35.6747 115.066 35.489 113.747 35.0683C112.428 34.6465 111.308 33.8925 110.386 32.8027C109.464 31.7128 109.004 30.1768 109.004 28.1963C109.032 25.6454 109.932 23.6448 111.705 22.1961C113.477 20.7482 115.923 20.1093 119.044 20.2839V17.3861C119.044 15.7761 119.966 14.9706 121.81 14.9706C123.652 14.9706 124.575 15.7761 124.575 17.3861ZM117.767 30.3881C118.192 30.3624 118.511 30.1768 118.724 29.831C118.938 29.484 119.044 29.0255 119.044 28.4561V25.2985C117.512 25.1004 116.348 25.2615 115.555 25.7819C114.761 26.301 114.321 27.0194 114.237 27.9356C114.207 28.8532 114.512 29.5088 115.15 29.9047C115.789 30.3019 116.661 30.4621 117.767 30.3881ZM119.384 9.65819C119.952 7.94977 121.256 7.3299 123.298 7.80086L127.127 8.69267C129.17 9.18831 129.906 10.2781 129.34 11.962C128.744 13.6705 127.426 14.2903 125.383 13.8193L121.597 12.9275C119.525 12.4565 118.788 11.3678 119.384 9.65819Z" fill="#1391E6"/>
<path d="M139.762 5.64697H146.57C150.541 5.67162 152.413 7.57809 152.186 11.3676C152.016 12.8536 151.788 14.5989 151.505 16.6049C152.725 16.9517 153.958 17.3735 155.207 17.868C155.349 16.8029 155.49 15.3674 155.632 13.5594C155.745 11.925 156.667 11.107 158.397 11.107C160.355 11.1561 161.304 11.974 161.248 13.5594C161.049 16.2336 160.837 18.4008 160.61 20.0599L162.312 20.9147C164.381 21.7571 165.006 23.2431 164.184 25.3721C163.219 26.8836 161.914 27.2306 160.269 26.4126L159.546 26.0781C159.177 27.7128 158.339 30.2514 157.036 33.694C156.128 35.303 154.766 35.7987 152.951 35.18C151.079 34.3867 150.569 33.1984 151.42 31.613C152.782 28.7163 153.675 26.0535 154.101 23.6267C153.447 23.355 152.809 23.0998 152.186 22.8649C151.561 22.6299 150.952 22.4128 150.357 22.2148L150.314 22.2899C149.859 23.9232 149.179 25.6072 148.272 27.3413C147.363 29.0756 146.278 30.5368 145.017 31.7248C143.755 32.9143 142.344 33.5576 140.784 33.6572C138.572 33.6315 136.919 32.7531 135.827 31.0188C134.736 29.2847 134.373 26.9698 134.742 24.0721C135.027 22.4374 135.756 21.0077 136.933 19.7813C138.111 18.5563 139.472 17.5895 141.018 16.8834C142.563 16.1786 144.215 15.7881 145.974 15.7143C146.087 14.9222 146.187 14.1534 146.273 13.4107C146.385 12.2213 145.903 11.615 144.826 11.5902H139.762C137.493 11.5902 136.359 10.5991 136.359 8.6186C136.359 6.6371 137.493 5.64697 139.762 5.64697ZM140.996 27.6759C141.62 27.6501 142.166 27.3166 142.635 26.6723C143.103 26.029 143.492 25.2861 143.805 24.4435C144.116 23.601 144.357 22.8525 144.528 22.1957C144.698 21.5402 144.783 21.2 144.783 21.1742C143.847 21.1742 143.025 21.3858 142.316 21.8064C141.606 22.2272 141.075 22.7228 140.721 23.2923C140.366 23.8618 140.117 24.3698 139.975 24.815C139.777 25.7818 139.827 26.4989 140.125 26.9698C140.422 27.441 140.713 27.6759 140.996 27.6759Z" fill="#1391E6"/>
<path d="M190.945 7.46599C190.945 7.71434 191.085 7.83728 191.37 7.83728H205.197C205.962 7.83728 206.614 8.07234 207.153 8.54336C207.692 9.01441 207.962 9.57715 207.962 10.234C207.962 10.8907 207.692 11.4535 207.153 11.9245C206.614 12.3956 205.962 12.6305 205.197 12.6305H170.48C169.742 12.6305 169.104 12.3956 168.566 11.9245C168.026 11.4535 167.757 10.8907 167.757 10.234C167.757 9.57715 168.026 9.01441 168.566 8.54336C169.104 8.07234 169.742 7.83728 170.48 7.83728H173.373C173.657 7.83728 173.799 7.71434 173.799 7.46599V4.56927C173.799 3.85099 174.096 3.23118 174.692 2.71087C175.288 2.19179 175.996 1.93106 176.819 1.93106C177.642 1.93106 178.351 2.19179 178.947 2.71087C179.542 3.23118 179.84 3.85099 179.84 4.56927V7.46599C179.84 7.71434 179.981 7.83728 180.266 7.83728H184.222C184.504 7.83728 184.648 7.71434 184.648 7.46599V2.74889C184.648 1.9802 184.952 1.33026 185.563 0.797769C186.171 0.266214 186.916 0 187.796 0H188.774C189.37 0 189.881 0.185642 190.306 0.557107C190.732 0.928601 190.945 1.37383 190.945 1.89405C190.945 2.04291 191.029 2.11679 191.199 2.11679H201.368C202.049 2.11679 202.629 2.32819 203.112 2.74889C203.594 3.16959 203.835 3.68424 203.835 4.29074C203.835 4.89705 203.594 5.41173 203.112 5.83246C202.629 6.25201 202.049 6.46342 201.368 6.46342H191.37C191.085 6.46342 190.945 6.5866 190.945 6.83491V7.46599ZM199.326 30.0163C199.609 30.0163 199.751 29.8919 199.751 29.6447V16.1224C199.751 15.3795 200.048 14.7473 200.644 14.2271C201.24 13.708 201.963 13.4473 202.813 13.4473C203.666 13.4473 204.388 13.708 204.984 14.2271C205.58 14.7473 205.877 15.3795 205.877 16.1224V33.5451C205.877 34.2879 205.58 34.9201 204.984 35.4392C204.388 35.9595 203.666 36.2202 202.813 36.2202H201.282C200.857 36.2202 200.496 36.0892 200.197 35.8298C199.9 35.5701 199.751 35.2536 199.751 34.8821C199.751 34.7824 199.693 34.7343 199.581 34.7343H176.181C176.067 34.7343 176.01 34.7824 176.01 34.8821C176.01 35.2536 175.862 35.5701 175.564 35.8298C175.266 36.0892 174.905 36.2202 174.479 36.2202H172.99C172.166 36.2202 171.459 35.9595 170.863 35.4392C170.267 34.9201 169.97 34.3002 169.97 33.5819V16.0854C169.97 15.3672 170.267 14.7473 170.863 14.2271C171.459 13.708 172.166 13.4473 172.99 13.4473C173.813 13.4473 174.521 13.708 175.117 14.2271C175.713 14.7473 176.01 15.3672 176.01 16.0854V25.2243C176.01 25.3226 176.054 25.3977 176.138 25.4468C176.224 25.496 176.309 25.5084 176.394 25.4837C178.378 24.8147 180.236 23.8614 181.967 22.6228C182.024 22.5982 182.044 22.5557 182.031 22.4931C182.016 22.4304 181.967 22.4002 181.883 22.4002H179.116C178.492 22.4002 177.96 22.2077 177.521 21.8241C177.08 21.4414 176.862 20.9771 176.862 20.4311C176.862 19.8861 177.08 19.4218 177.521 19.0382C177.96 18.6544 178.492 18.4631 179.116 18.4631H179.16C179.329 18.4631 179.385 18.3881 179.329 18.2392C179.102 17.7448 178.819 17.2368 178.478 16.7165C178.308 16.4447 178.223 16.1716 178.223 15.8998C178.223 15.7017 178.252 15.5161 178.308 15.3427C178.506 14.8469 178.875 14.5248 179.415 14.3759C179.754 14.2528 180.109 14.1903 180.478 14.1903C180.762 14.1903 181.045 14.2159 181.329 14.2651C181.981 14.4386 182.477 14.7731 182.818 15.2676C182.874 15.317 182.931 15.3795 182.989 15.4534C183.186 15.7756 183.286 16.0967 183.286 16.419C183.286 16.6427 183.244 16.8775 183.159 17.1248C182.903 17.6944 182.435 18.1028 181.755 18.3512H181.712C181.683 18.3758 181.675 18.4003 181.691 18.4249C181.705 18.4506 181.725 18.4631 181.755 18.4631H184.477C184.761 18.4631 184.903 18.3388 184.903 18.0915V15.7879C184.903 15.1446 185.164 14.5929 185.69 14.1342C186.214 13.6766 186.845 13.4473 187.583 13.4473C188.32 13.4473 188.951 13.6766 189.476 14.1342C190 14.5929 190.264 15.1446 190.264 15.7879V18.0915C190.264 18.3388 190.405 18.4631 190.689 18.4631H194.05C194.077 18.4631 194.099 18.4506 194.113 18.4249C194.127 18.4003 194.12 18.3881 194.093 18.3881L193.752 18.2773C193.128 18.1028 192.688 17.7448 192.433 17.1999C192.319 16.9515 192.263 16.7042 192.263 16.4569C192.263 16.1595 192.333 15.8741 192.476 15.6021C192.787 15.0327 193.256 14.5985 193.88 14.3021C194.276 14.1287 194.689 14.0414 195.114 14.0414C195.369 14.0414 195.609 14.0795 195.837 14.1533H195.922C196.517 14.3021 196.928 14.6365 197.155 15.1568C197.241 15.3538 197.283 15.5529 197.283 15.7508C197.283 16.0732 197.169 16.3696 196.942 16.6427C196.348 17.4101 195.935 17.9305 195.71 18.2023C195.652 18.2515 195.646 18.3075 195.688 18.3701C195.73 18.4317 195.779 18.4631 195.837 18.4631H196.603C197.226 18.4631 197.757 18.6544 198.198 19.0382C198.638 19.4218 198.858 19.8861 198.858 20.4311C198.858 20.9771 198.638 21.4414 198.198 21.8241C197.757 22.2077 197.226 22.4002 196.603 22.4002H193.625C193.539 22.4002 193.489 22.4304 193.475 22.4931C193.461 22.5557 193.481 22.5982 193.539 22.6228C194.673 23.4407 195.879 24.121 197.155 24.6671C197.693 24.9143 198.02 25.3105 198.134 25.8552C198.162 25.9548 198.176 26.0655 198.176 26.1898C198.176 26.5612 198.02 26.907 197.709 27.2304C197.169 27.7492 196.545 28.0839 195.837 28.2328C195.638 28.2819 195.425 28.3067 195.198 28.3067C194.715 28.3067 194.248 28.1835 193.794 27.9351C192.66 27.2414 191.583 26.4492 190.561 25.5576C190.504 25.5084 190.44 25.496 190.37 25.5206C190.299 25.5464 190.264 25.5957 190.264 25.6695V27.0444C190.264 27.6878 190 28.2395 189.476 28.697C188.951 29.1547 188.32 29.384 187.583 29.384C186.845 29.384 186.214 29.1547 185.69 28.697C185.164 28.2395 184.903 27.6878 184.903 27.0444V25.8183C184.903 25.7434 184.867 25.694 184.797 25.6695C184.725 25.6449 184.661 25.6572 184.606 25.7065C183.81 26.4246 183.003 27.0557 182.18 27.6017C181.527 27.9978 180.846 28.1959 180.138 28.1959C179.883 28.1959 179.628 28.17 179.373 28.1209C178.378 27.9239 177.513 27.464 176.777 26.747C176.606 26.6238 176.45 26.4862 176.309 26.3384C176.251 26.2893 176.187 26.2759 176.118 26.3006C176.046 26.3263 176.01 26.3755 176.01 26.4492V29.6447C176.01 29.8919 176.153 30.0163 176.437 30.0163H199.326Z" fill="#1391E6"/>
<path d="M226.384 19.7999C227.006 20.3694 227.347 21.0374 227.405 21.8061V22.0286C227.405 22.7225 227.163 23.3545 226.681 23.923C226.312 24.3693 225.83 24.5919 225.236 24.5919C225.178 24.5919 225.107 24.5796 225.022 24.5551C224.341 24.5059 223.845 24.2205 223.533 23.7004C223.42 23.5515 223.32 23.4037 223.235 23.255C223.207 23.2057 223.164 23.1867 223.107 23.199C223.05 23.2114 223.023 23.2426 223.023 23.2919V34.3248C223.023 35.0677 222.726 35.7001 222.13 36.2202C221.534 36.7406 220.81 37 219.959 37C219.108 37 218.386 36.7406 217.79 36.2202C217.194 35.7001 216.897 35.0677 216.897 34.3248V25.6325C216.897 25.5832 216.875 25.552 216.833 25.5397C216.79 25.5273 216.753 25.5464 216.726 25.5956C216.102 26.8096 215.492 27.8736 214.896 28.7898C214.584 29.261 214.13 29.4958 213.536 29.4958H213.323C212.613 29.4221 212.102 29.0987 211.79 28.5303C211.422 27.8612 211.238 27.143 211.238 26.3755V26.0039C211.323 25.137 211.634 24.3202 212.174 23.5515C213.536 21.6696 214.782 19.5025 215.918 17.051C215.946 16.9514 215.932 16.8653 215.875 16.7902C215.818 16.7165 215.747 16.6796 215.663 16.6796H213.663C212.84 16.6796 212.145 16.4312 211.578 15.9368C211.01 15.4409 210.727 14.8402 210.727 14.1341C210.727 13.4293 211.01 12.8229 211.578 12.3139C212.145 11.8059 212.84 11.553 213.663 11.553H216.471C216.753 11.553 216.897 11.429 216.897 11.1816V8.39552C216.897 8.29617 216.853 8.21551 216.769 8.15395C216.684 8.09137 216.584 8.06109 216.471 8.06109C215.96 8.13503 215.535 8.19764 215.195 8.24682C215.052 8.27159 214.911 8.28376 214.77 8.28376C214.23 8.28376 213.719 8.13503 213.237 7.8373C212.641 7.46586 212.216 6.97143 211.961 6.35159C211.876 6.12898 211.834 5.90645 211.834 5.6836C211.834 5.38599 211.919 5.08855 212.089 4.79182C212.4 4.29624 212.882 3.99977 213.536 3.90013C216.626 3.37993 219.52 2.74891 222.214 2.00586C222.64 1.88181 223.065 1.82028 223.49 1.82028C223.916 1.82028 224.355 1.88181 224.809 2.00586C225.688 2.25324 226.368 2.71083 226.851 3.37993C227.135 3.72669 227.277 4.09818 227.277 4.4943C227.277 4.71688 227.219 4.95191 227.106 5.20034C226.851 5.84357 226.356 6.25182 225.618 6.42644C224.909 6.6 224.185 6.76105 223.448 6.90867C223.164 6.95787 223.023 7.10678 223.023 7.35513V11.1816C223.023 11.429 223.164 11.553 223.448 11.553H225.448C226.27 11.553 226.964 11.8059 227.532 12.3139C228.099 12.8229 228.384 13.4293 228.384 14.1341C228.384 14.8402 228.099 15.4409 227.532 15.9368C226.964 16.4312 226.27 16.6796 225.448 16.6796H223.107C223.05 16.6796 223.023 16.7041 223.023 16.7533C223.023 16.8028 223.05 16.8394 223.107 16.8653C223.675 17.3108 224.767 18.2885 226.384 19.7999ZM251.742 24.1836C251.768 24.3324 251.784 24.48 251.784 24.6291C251.784 25.1749 251.598 25.6818 251.23 26.1529C250.747 26.7469 250.095 27.1061 249.274 27.2303L247.785 27.4898C247.5 27.5144 247.359 27.6498 247.359 27.8984V34.2509C247.359 34.994 247.053 35.6306 246.444 36.1644C245.833 36.6958 245.097 36.9631 244.232 36.9631C243.365 36.9631 242.629 36.6958 242.02 36.1644C241.409 35.6306 241.105 34.994 241.105 34.2509V28.9017C241.105 28.8022 241.063 28.7227 240.977 28.6601C240.892 28.5974 240.807 28.5795 240.722 28.6042L231.532 30.053C231.334 30.0776 231.149 30.0901 230.979 30.0901C230.355 30.0901 229.787 29.93 229.277 29.6077C228.597 29.1871 228.184 28.6165 228.043 27.8984C228.014 27.7493 228.001 27.5895 228.001 27.416C228.001 26.8701 228.184 26.3632 228.553 25.8921C229.035 25.2723 229.702 24.9008 230.553 24.7777L240.722 23.18C240.977 23.1553 241.105 23.02 241.105 22.7718V3.56563C241.105 2.79803 241.409 2.14826 242.02 1.61553C242.629 1.08289 243.365 0.81665 244.232 0.81665C245.097 0.81665 245.833 1.08289 246.444 1.61553C247.053 2.14826 247.359 2.79803 247.359 3.56563V21.8061C247.359 21.9057 247.402 21.9851 247.486 22.0478C247.572 22.1094 247.657 22.1283 247.741 22.1025L248.295 22.0286C248.492 22.0041 248.678 21.9918 248.848 21.9918C249.444 21.9918 250.01 22.1519 250.55 22.475C251.23 22.8947 251.627 23.4653 251.742 24.1836ZM230.467 17.7201C229.929 17.2736 229.66 16.7411 229.66 16.1224C229.66 15.5026 229.929 14.9821 230.467 14.5615C231.064 14.0905 231.745 13.8445 232.511 13.8189H232.638C233.376 13.8189 234.027 14.0301 234.596 14.4507C235.644 15.243 236.567 15.9736 237.361 16.6426C237.899 17.1372 238.17 17.7077 238.17 18.3512C238.17 19.1433 237.829 19.8124 237.148 20.3571C236.637 20.7779 236.043 20.9881 235.361 20.9881H235.106C234.34 20.9145 233.687 20.6168 233.149 20.0977C232.355 19.3289 231.46 18.5369 230.467 17.7201ZM238.722 6.6122C239.233 7.08319 239.488 7.62707 239.488 8.24682V8.50646C239.403 9.22481 239.047 9.81894 238.424 10.2898C237.915 10.6859 237.346 10.884 236.723 10.884C236.609 10.884 236.495 10.8717 236.382 10.8471C235.588 10.7732 234.935 10.4756 234.426 9.95535C233.715 9.21239 232.894 8.44385 231.958 7.65178C231.448 7.2312 231.191 6.71181 231.191 6.09191C231.191 5.4486 231.474 4.91503 232.042 4.4943C232.638 4.04919 233.333 3.82636 234.127 3.82636C234.921 3.82636 235.602 4.04919 236.169 4.4943C237.133 5.23716 237.984 5.94321 238.722 6.6122Z" fill="#1391E6"/>
<path d="M268.121 7.9126H275.651C280.699 7.86331 282.826 10.2643 282.032 15.119C281.663 17.3232 280.855 19.6581 279.608 22.1219C278.359 24.5854 276.821 26.6107 274.992 28.196C273.162 29.7813 271.269 31.0558 269.311 32.0225C267.355 32.988 265.242 33.8428 262.973 34.5859C260.958 35.2537 259.485 34.7581 258.548 33.1C257.952 31.1934 258.562 29.9303 260.378 29.3104C261.229 29.1124 262.447 28.6783 264.036 28.0103C265.625 27.3412 267.283 26.3264 269.014 24.9637C270.744 23.601 272.14 22.029 273.205 20.2456C274.269 18.4631 274.899 16.8532 275.098 15.4166C275.295 14.1288 274.644 13.4733 273.141 13.4474H265.525C263.88 15.7758 262.234 17.6207 260.591 18.9824C258.916 20.3698 257.328 20.5678 255.825 19.5777C254.435 17.9431 254.449 16.494 255.867 15.2309C256.661 14.6111 257.597 13.6454 258.676 12.3331C259.753 11.0208 260.788 9.0762 261.781 6.50069C262.377 4.6433 263.851 3.90037 266.207 4.27181C268.163 4.76639 268.801 5.9804 268.121 7.9126Z" fill="#1391E6"/>
<path d="M288.628 7.35549C288.628 5.44909 289.718 4.49475 291.903 4.49475C294.116 4.49475 295.222 5.44909 295.222 7.35549V19.0576C295.222 20.9641 294.13 21.9173 291.946 21.9173C289.734 21.9173 288.628 20.9641 288.628 19.0576V7.35549ZM296.669 29.2356C298.908 28.4681 300.533 27.6134 301.54 26.6723C302.546 25.7326 303.412 24.5734 304.135 23.1995C304.859 21.8244 305.234 20.1228 305.262 18.0921V7.35549C305.262 5.44909 306.354 4.49475 308.539 4.49475C310.75 4.49475 311.858 5.44909 311.858 7.35549V18.0921C311.828 21.1868 311.262 23.8193 310.155 25.9854C309.049 28.1526 307.588 29.9046 305.774 31.2418C303.958 32.5798 301.661 33.7434 298.881 34.7348C296.64 35.3288 295.164 34.7348 294.455 32.9513C294.03 30.9699 294.768 29.7312 296.669 29.2356Z" fill="#1391E6"/>
<path d="M341.765 27.6023C343.978 27.6023 345.084 28.5679 345.084 30.4989C345.084 32.4558 343.978 33.4337 341.765 33.4337H321.429C319.217 33.4337 318.11 32.4681 318.11 30.537C318.11 28.5801 319.217 27.6023 321.429 27.6023H341.765ZM318.919 9.13923C318.919 7.20697 320.026 6.24133 322.237 6.24133H340.872C343.085 6.24133 344.19 7.20697 344.19 9.13923C344.19 11.0959 343.085 12.0739 340.872 12.0739H322.237C320.026 12.0739 318.919 11.1073 318.919 9.17602V9.13923Z" fill="#1391E6"/>
<path d="M353.89 11.2926L355.55 20.2086C355.747 21.521 355.138 22.3008 353.72 22.5494C352.302 22.7719 351.493 22.2147 351.296 20.8776L349.594 12.0735C349.423 10.7354 350.076 9.9925 351.551 9.84371C352.969 9.74518 353.748 10.2274 353.89 11.2926ZM354.997 34.3999C352.982 34.795 351.777 34.2009 351.38 32.6166C351.097 30.8589 351.763 29.8553 353.38 29.608C355.705 29.1616 357.747 28.2632 359.507 26.9139C361.264 25.5645 362.655 23.9354 363.676 22.0289C364.697 20.1225 365.468 18.2652 365.995 16.4572C366.519 14.648 366.851 13.2618 366.995 12.2962C367.192 10.7107 368.199 9.90639 370.015 9.8818C371.943 9.95559 372.766 10.8843 372.483 12.6676C371.915 16.3823 371.149 19.3102 370.185 21.4528C369.22 23.5953 367.93 25.607 366.314 27.49C364.697 29.3731 362.867 30.9015 360.825 32.0785C358.784 33.2543 356.84 34.0285 354.997 34.3999ZM360.995 11.2926L362.655 20.2086C362.852 21.521 362.229 22.3008 360.783 22.5494C359.364 22.7719 358.556 22.2147 358.358 20.8776L356.655 12.0735C356.513 10.7354 357.167 9.9925 358.613 9.84371C360.06 9.74518 360.853 10.2274 360.995 11.2926Z" fill="#1391E6"/>
<path d="M389.926 7.9126H397.456C402.505 7.86331 404.632 10.2643 403.839 15.119C403.47 17.3232 402.661 19.6581 401.413 22.1219C400.165 24.5854 398.626 26.6107 396.798 28.196C394.968 29.7813 393.074 31.0558 391.117 32.0225C389.161 32.988 387.047 33.8428 384.779 34.5859C382.763 35.2537 381.289 34.7581 380.354 33.1C379.758 31.1934 380.367 29.9303 382.183 29.3104C383.033 29.1124 384.253 28.6783 385.842 28.0103C387.43 27.3412 389.089 26.3264 390.82 24.9637C392.549 23.601 393.947 22.029 395.01 20.2456C396.074 18.4631 396.704 16.8532 396.904 15.4166C397.101 14.1288 396.449 13.4733 394.946 13.4474H387.331C385.686 15.7758 384.041 17.6207 382.395 18.9824C380.722 20.3698 379.133 20.5678 377.631 19.5777C376.241 17.9431 376.254 16.494 377.674 15.2309C378.467 14.6111 379.402 13.6454 380.481 12.3331C381.559 11.0208 382.594 9.0762 383.587 6.50069C384.183 4.6433 385.656 3.90037 388.011 4.27181C389.968 4.76639 390.607 5.9804 389.926 7.9126Z" fill="#1391E6"/>
<path d="M45.8478 7.25259C44.5012 6.25769 42.8656 5.55294 41.1563 5.12234C37.9157 4.30648 34.4652 5.34426 32.2836 7.63C31.0503 8.92178 29.2123 9.74105 27.1593 9.74105C25.1814 9.74105 23.4045 8.98062 22.1738 7.77047C19.7478 5.3829 16.0733 4.26443 12.6342 5.26171C11.1285 5.6979 9.69532 6.35742 8.4836 7.25259C0.750121 12.9763 5.97494 26.2874 6.90788 28.6331C9.59984 35.3834 14.9099 40.987 17.9125 40.9893C20.1666 40.9915 21.5437 41.0561 23.346 34.6095C23.8195 32.9244 24.8657 31.7755 25.8865 31.1873C26.5675 30.7952 27.4584 30.793 28.1508 31.1692C29.2225 31.7518 30.363 32.9075 30.8403 34.6095C32.6438 41.0561 34.2692 41.0515 36.3489 40.9893C39.3451 40.9009 44.701 35.3834 47.3866 28.6331C48.3183 26.2874 53.5813 12.9763 45.8478 7.25259Z" fill="#1391E6"/>
<path d="M21.271 22.104C21.271 24.7583 23.691 26.91 26.6762 26.91C29.6613 26.91 32.0813 24.7583 32.0813 22.104C30.543 22.104 21.271 22.104 21.271 22.104Z" fill="white"/>
<path d="M2.42758 8.18508C2.56283 8.59945 3.05447 9.03497 3.52052 9.15523L3.83488 9.2365C4.30093 9.35512 4.30093 9.55176 3.83488 9.67038L3.52052 9.75163C3.05447 9.87189 2.56283 10.3074 2.42758 10.7218L2.3362 11.0029C2.20279 11.4173 1.98163 11.4173 1.84822 11.0029L1.75683 10.7218C1.6234 10.3074 1.13177 9.87189 0.665724 9.75163L0.349538 9.67038C-0.116513 9.55176 -0.116513 9.35512 0.349538 9.2365L0.665724 9.15523C1.13177 9.03497 1.6234 8.59945 1.75683 8.18508L1.84822 7.90394C1.98163 7.48954 2.20279 7.48954 2.3362 7.90394L2.42758 8.18508Z" fill="#1391E6"/>
<path d="M6.53839 1.20703C6.81437 2.05206 7.81593 2.94423 8.76631 3.18797L9.41147 3.35208C10.3619 3.59748 10.3619 3.99725 9.41147 4.241L8.76631 4.40515C7.81593 4.6489 6.81437 5.54106 6.53839 6.3861L6.35381 6.95812C6.07965 7.80478 5.63005 7.80478 5.3559 6.95812L5.16949 6.3861C4.89534 5.54106 3.89195 4.6489 2.94158 4.40515L2.29824 4.241C1.34785 3.99725 1.34785 3.59748 2.29824 3.35208L2.94158 3.18797C3.89195 2.94423 4.89534 2.05206 5.16949 1.20703L5.3559 0.635004C5.63005 -0.211668 6.07965 -0.211668 6.35381 0.635004L6.53839 1.20703Z" fill="#1391E6"/>
<path d="M21.1509 15.4052C21.1509 14.8559 21.5962 14.4106 22.1454 14.4106C22.6947 14.4106 23.14 14.8559 23.14 15.4052V17.4161C23.14 17.9654 22.6947 18.4106 22.1454 18.4106C21.5962 18.4106 21.1509 17.9654 21.1509 17.4161V15.4052Z" fill="white"/>
<path d="M30.2827 15.4052C30.2827 14.8559 30.728 14.4106 31.2773 14.4106C31.8266 14.4106 32.2718 14.8559 32.2718 15.4052V17.4161C32.2718 17.9654 31.8266 18.4106 31.2773 18.4106C30.728 18.4106 30.2827 17.9654 30.2827 17.4161V15.4052Z" fill="white"/>
</svg>
