<svg width="100" height="80" viewBox="0 0 100 80" fill="none" xmlns="http://www.w3.org/2000/svg">
<path d="M0 0H100V80L51.2839 63.6735L0 80V0Z" fill="#EE5A6D"/>
<path d="M33.712 37.24C33.4667 37.24 33.2587 37.1547 33.088 36.984C32.928 36.8134 32.848 36.6107 32.848 36.376C32.848 36.1414 32.928 35.9387 33.088 35.768C33.2587 35.5974 33.4667 35.512 33.712 35.512H38.768C38.864 35.512 38.912 35.4694 38.912 35.384V34.744C38.912 34.6587 38.864 34.616 38.768 34.616H35.2C34.976 34.616 34.784 34.5414 34.624 34.392C34.4747 34.232 34.4 34.04 34.4 33.816C34.4 33.592 34.4747 33.4054 34.624 33.256C34.784 33.096 34.976 33.016 35.2 33.016H38.768C38.864 33.016 38.912 32.968 38.912 32.872V32.296C38.912 32.2 38.864 32.152 38.768 32.152H35.152C34.9067 32.152 34.6933 32.0667 34.512 31.896C34.3307 31.7147 34.24 31.5014 34.24 31.256V31.16C34.24 31.0747 34.192 31.032 34.096 31.032H33.968C33.7227 31.032 33.5093 30.9414 33.328 30.76C33.1573 30.5787 33.072 30.3654 33.072 30.12V28.808C33.072 28.5627 33.1573 28.3547 33.328 28.184C33.5093 28.0027 33.7227 27.912 33.968 27.912H38.768C38.864 27.912 38.912 27.864 38.912 27.768V27.64C38.912 27.3947 38.9973 27.1814 39.168 27C39.3493 26.8187 39.5627 26.728 39.808 26.728H40.192C40.4373 26.728 40.6453 26.8187 40.816 27C40.9973 27.1814 41.088 27.3947 41.088 27.64V27.768C41.088 27.864 41.136 27.912 41.232 27.912H46.032C46.2773 27.912 46.4853 28.0027 46.656 28.184C46.8373 28.3547 46.928 28.5627 46.928 28.808V30.12C46.928 30.3654 46.8373 30.5787 46.656 30.76C46.4853 30.9414 46.2773 31.032 46.032 31.032H45.888C45.8027 31.032 45.76 31.0747 45.76 31.16V31.256C45.76 31.5014 45.6693 31.7147 45.488 31.896C45.3067 32.0667 45.0933 32.152 44.848 32.152H41.232C41.136 32.152 41.088 32.2 41.088 32.296V32.872C41.088 32.968 41.136 33.016 41.232 33.016H44.8C45.024 33.016 45.2107 33.096 45.36 33.256C45.52 33.4054 45.6 33.592 45.6 33.816C45.6 34.04 45.52 34.232 45.36 34.392C45.2107 34.5414 45.024 34.616 44.8 34.616H41.232C41.136 34.616 41.088 34.6587 41.088 34.744V35.384C41.088 35.4694 41.136 35.512 41.232 35.512H46.288C46.5333 35.512 46.736 35.5974 46.896 35.768C47.0667 35.9387 47.152 36.1414 47.152 36.376C47.152 36.6107 47.0667 36.8134 46.896 36.984C46.736 37.1547 46.5333 37.24 46.288 37.24H41.664C41.5787 37.24 41.5627 37.2774 41.616 37.352C42.3947 38.2694 43.9467 38.9414 46.272 39.368C46.5067 39.4107 46.6773 39.5334 46.784 39.736C46.9013 39.9387 46.9173 40.1467 46.832 40.36L46.768 40.504C46.672 40.7494 46.5067 40.936 46.272 41.064C46.048 41.192 45.808 41.224 45.552 41.16C44.4 40.8827 43.3547 40.4934 42.416 39.992C41.488 39.5014 40.7467 38.952 40.192 38.344C40.128 38.2907 40.0693 38.2907 40.016 38.344C38.7253 39.688 36.8693 40.632 34.448 41.176C34.192 41.2294 33.9467 41.192 33.712 41.064C33.488 40.936 33.328 40.7494 33.232 40.504L33.168 40.36C33.0827 40.1467 33.0987 39.9387 33.216 39.736C33.3333 39.5334 33.504 39.4107 33.728 39.368C36.032 38.9414 37.584 38.2694 38.384 37.352C38.4373 37.2774 38.4213 37.24 38.336 37.24H33.712ZM41.088 29.736V30.376C41.088 30.4614 41.136 30.504 41.232 30.504H44.816C44.912 30.504 44.96 30.4614 44.96 30.376V29.736C44.96 29.64 44.912 29.592 44.816 29.592H41.232C41.136 29.592 41.088 29.64 41.088 29.736ZM38.768 30.504C38.864 30.504 38.912 30.4614 38.912 30.376V29.736C38.912 29.64 38.864 29.592 38.768 29.592H35.168C35.0827 29.592 35.04 29.64 35.04 29.736V30.376C35.04 30.4614 35.0827 30.504 35.168 30.504H38.768ZM56.016 34.456L55.968 34.344C55.8827 34.1094 55.8933 33.8854 56 33.672C56.1067 33.448 56.2773 33.2987 56.512 33.224C56.9813 33.0747 57.4187 32.9147 57.824 32.744C57.8347 32.7334 57.84 32.7227 57.84 32.712C57.84 32.7014 57.8293 32.696 57.808 32.696L56.992 32.648C56.7573 32.6374 56.576 32.536 56.448 32.344C56.32 32.152 56.288 31.9494 56.352 31.736C56.5227 31.1387 56.6453 30.696 56.72 30.408C56.7947 30.152 56.9333 29.944 57.136 29.784C57.3493 29.6134 57.5893 29.528 57.856 29.528H60.272C60.3787 29.528 60.432 29.4854 60.432 29.4C60.432 29.3787 60.432 29.352 60.432 29.32C60.4427 29.2774 60.448 29.2454 60.448 29.224C60.448 29.128 60.4053 29.08 60.32 29.08H56.896C56.704 29.08 56.5387 29.0107 56.4 28.872C56.2613 28.7334 56.192 28.568 56.192 28.376C56.192 28.184 56.2613 28.0187 56.4 27.88C56.5387 27.7414 56.704 27.672 56.896 27.672H60.368C60.4427 27.672 60.48 27.6347 60.48 27.56C60.48 27.368 60.544 27.208 60.672 27.08C60.8107 26.9414 60.976 26.872 61.168 26.872H61.872C62.064 26.872 62.224 26.9414 62.352 27.08C62.4907 27.208 62.56 27.368 62.56 27.56C62.56 27.6347 62.5973 27.672 62.672 27.672H63.92C63.9947 27.672 64.032 27.6347 64.032 27.56C64.032 27.368 64.096 27.208 64.224 27.08C64.3627 26.9414 64.528 26.872 64.72 26.872H65.408C65.6 26.872 65.7653 26.9414 65.904 27.08C66.0427 27.208 66.112 27.368 66.112 27.56C66.112 27.6347 66.144 27.672 66.208 27.672H68.928C69.1733 27.672 69.3867 27.7627 69.568 27.944C69.7493 28.1147 69.84 28.3227 69.84 28.568V29.768C69.84 30.0134 69.7493 30.2267 69.568 30.408C69.3867 30.5894 69.1733 30.68 68.928 30.68H66.24C66.1547 30.68 66.112 30.7227 66.112 30.808V30.984C66.112 31.0694 66.1547 31.112 66.24 31.112H69.568C69.8133 31.112 70.0267 31.2027 70.208 31.384C70.3893 31.5654 70.4747 31.7787 70.464 32.024C70.432 32.8027 70.3253 33.3307 70.144 33.608C69.9733 33.8854 69.664 34.0454 69.216 34.088C69.1307 34.088 69.088 34.136 69.088 34.232V38.072C69.088 38.3174 68.9973 38.5307 68.816 38.712C68.6453 38.8827 68.4373 38.968 68.192 38.968H67.264C67.2533 38.9787 67.248 38.9947 67.248 39.016C68.3467 39.3787 69.2 39.688 69.808 39.944C70.0107 40.0294 70.1387 40.1787 70.192 40.392C70.256 40.616 70.2293 40.824 70.112 41.016C69.984 41.2187 69.8027 41.352 69.568 41.416C69.3333 41.4907 69.104 41.48 68.88 41.384C67.888 40.9254 66.6613 40.456 65.2 39.976C65.0187 39.912 64.8853 39.7947 64.8 39.624C64.7253 39.4427 64.7307 39.2614 64.816 39.08C64.8373 39.0054 64.816 38.968 64.752 38.968H61.648C61.5947 38.968 61.5787 38.9947 61.6 39.048C61.696 39.1974 61.7227 39.3627 61.68 39.544C61.6373 39.7254 61.536 39.8534 61.376 39.928C60.288 40.504 58.96 41.0054 57.392 41.432C57.1573 41.496 56.928 41.4747 56.704 41.368C56.4907 41.2614 56.3253 41.096 56.208 40.872C56.112 40.68 56.1067 40.4827 56.192 40.28C56.288 40.088 56.4427 39.9654 56.656 39.912C57.7227 39.624 58.6507 39.3254 59.44 39.016C59.4507 39.0054 59.456 38.9947 59.456 38.984C59.456 38.9734 59.4453 38.968 59.424 38.968H58.208C57.9627 38.968 57.7493 38.8827 57.568 38.712C57.3973 38.5307 57.312 38.3174 57.312 38.072V35.08C57.312 34.9947 57.2693 34.9627 57.184 34.984C56.9493 35.0694 56.7147 35.064 56.48 34.968C56.256 34.8614 56.1013 34.6907 56.016 34.456ZM66.112 29.208V29.4C66.112 29.4854 66.1547 29.528 66.24 29.528H67.648C67.744 29.528 67.792 29.4854 67.792 29.4V29.208C67.792 29.1227 67.744 29.08 67.648 29.08H66.24C66.1547 29.08 66.112 29.1227 66.112 29.208ZM66.912 37.512V37.336C66.912 37.24 66.864 37.192 66.768 37.192H59.632C59.536 37.192 59.488 37.24 59.488 37.336V37.512C59.488 37.608 59.536 37.656 59.632 37.656H66.768C66.864 37.656 66.912 37.608 66.912 37.512ZM66.912 35.992V35.8C66.912 35.704 66.864 35.656 66.768 35.656H59.632C59.536 35.656 59.488 35.704 59.488 35.8V35.992C59.488 36.0774 59.536 36.12 59.632 36.12H66.768C66.864 36.12 66.912 36.0774 66.912 35.992ZM66.112 32.392V32.76C66.112 32.8454 66.1547 32.888 66.24 32.888H66.528C66.5493 32.888 66.56 32.8774 66.56 32.856C66.5493 32.8027 66.5653 32.7547 66.608 32.712C66.6507 32.6694 66.6987 32.648 66.752 32.648C67.072 32.6587 67.4187 32.664 67.792 32.664C67.9307 32.664 68.016 32.6534 68.048 32.632C68.0907 32.6 68.1173 32.52 68.128 32.392C68.1493 32.296 68.112 32.248 68.016 32.248H66.24C66.1547 32.248 66.112 32.296 66.112 32.392ZM62.528 29.224C62.528 29.2454 62.5227 29.2774 62.512 29.32C62.512 29.352 62.512 29.3787 62.512 29.4C62.512 29.4854 62.5547 29.528 62.64 29.528H63.888C63.984 29.528 64.032 29.4854 64.032 29.4V29.208C64.032 29.1227 63.984 29.08 63.888 29.08H62.672C62.576 29.08 62.528 29.128 62.528 29.224ZM62.224 30.984C62.2027 31.0694 62.2347 31.112 62.32 31.112H63.888C63.984 31.112 64.032 31.0694 64.032 30.984V30.808C64.032 30.7227 63.984 30.68 63.888 30.68H62.448C62.352 30.68 62.2987 30.7174 62.288 30.792C62.2773 30.8134 62.2667 30.8454 62.256 30.888C62.2453 30.9307 62.2347 30.9627 62.224 30.984ZM61.152 32.792C61.1307 32.8134 61.1253 32.8347 61.136 32.856C61.1573 32.8774 61.1787 32.888 61.2 32.888H63.888C63.984 32.888 64.032 32.8454 64.032 32.76V32.392C64.032 32.296 63.984 32.248 63.888 32.248H61.744C61.6587 32.248 61.5893 32.2854 61.536 32.36C61.4293 32.4987 61.3013 32.6427 61.152 32.792ZM66.768 34.136H59.632C59.536 34.136 59.488 34.1787 59.488 34.264V34.456C59.488 34.552 59.536 34.6 59.632 34.6H66.768C66.864 34.6 66.912 34.552 66.912 34.456V34.264C66.912 34.1787 66.864 34.136 66.768 34.136ZM58.64 30.968C58.6187 31.064 58.6507 31.112 58.736 31.112H59.824C59.9307 31.112 60 31.0747 60.032 31C60.0427 30.9787 60.0587 30.9467 60.08 30.904C60.1013 30.8507 60.1173 30.8134 60.128 30.792C60.1493 30.7174 60.1173 30.68 60.032 30.68H58.864C58.7787 30.68 58.7253 30.7227 58.704 30.808C58.6933 30.8294 58.6827 30.856 58.672 30.888C58.6613 30.92 58.6507 30.9467 58.64 30.968ZM58.16 32.504C58.1493 32.5254 58.1547 32.5467 58.176 32.568C58.1973 32.5787 58.2187 32.5787 58.24 32.568C58.4533 32.4614 58.608 32.3814 58.704 32.328C58.7147 32.3174 58.72 32.3014 58.72 32.28C58.72 32.2587 58.7093 32.248 58.688 32.248H58.384C58.3093 32.248 58.2507 32.296 58.208 32.392C58.208 32.4027 58.2027 32.424 58.192 32.456C58.1813 32.4774 58.1707 32.4934 58.16 32.504Z" fill="white"/>
</svg>
