<svg width="40" height="40" viewBox="0 0 40 40" fill="none" xmlns="http://www.w3.org/2000/svg">
<circle cx="20" cy="20" r="20" fill="#EE5A6D"/>
<path d="M10.5121 24C10.3588 24 10.2254 23.9433 10.1121 23.83C10.0054 23.7167 9.95211 23.5833 9.95211 23.43V17.27C9.95211 17.1167 10.0054 16.9833 10.1121 16.87C10.2254 16.7567 10.3588 16.7 10.5121 16.7H10.7321C11.1121 16.7 11.3921 16.8667 11.5721 17.2L14.0421 21.66C14.0421 21.6667 14.0454 21.67 14.0521 21.67C14.0588 21.67 14.0621 21.6667 14.0621 21.66V17.27C14.0621 17.1167 14.1188 16.9833 14.2321 16.87C14.3454 16.7567 14.4788 16.7 14.6321 16.7H14.8521C15.0054 16.7 15.1354 16.7567 15.2421 16.87C15.3554 16.9833 15.4121 17.1167 15.4121 17.27V23.43C15.4121 23.5833 15.3554 23.7167 15.2421 23.83C15.1354 23.9433 15.0054 24 14.8521 24H14.6321C14.2521 24 13.9721 23.8333 13.7921 23.5L11.3221 19.04C11.3221 19.0333 11.3188 19.03 11.3121 19.03C11.3054 19.03 11.3021 19.0333 11.3021 19.04V23.43C11.3021 23.5833 11.2454 23.7167 11.1321 23.83C11.0188 23.9433 10.8854 24 10.7321 24H10.5121ZM17.5631 24C17.4098 24 17.2765 23.9433 17.1631 23.83C17.0498 23.7167 16.9931 23.5833 16.9931 23.43V17.27C16.9931 17.1167 17.0498 16.9833 17.1631 16.87C17.2765 16.7567 17.4098 16.7 17.5631 16.7H20.9631C21.1165 16.7 21.2498 16.7567 21.3631 16.87C21.4765 16.9833 21.5331 17.1167 21.5331 17.27C21.5331 17.4233 21.4765 17.5567 21.3631 17.67C21.2498 17.7767 21.1165 17.83 20.9631 17.83H18.4831C18.4231 17.83 18.3931 17.86 18.3931 17.92V19.53C18.3931 19.59 18.4231 19.62 18.4831 19.62H20.7931C20.9465 19.62 21.0731 19.6733 21.1731 19.78C21.2798 19.8867 21.3331 20.0133 21.3331 20.16C21.3331 20.3067 21.2798 20.4333 21.1731 20.54C21.0731 20.64 20.9465 20.69 20.7931 20.69H18.4831C18.4231 20.69 18.3931 20.72 18.3931 20.78V22.78C18.3931 22.84 18.4231 22.87 18.4831 22.87H20.9631C21.1165 22.87 21.2498 22.9267 21.3631 23.04C21.4765 23.1467 21.5331 23.2767 21.5331 23.43C21.5331 23.5833 21.4765 23.7167 21.3631 23.83C21.2498 23.9433 21.1165 24 20.9631 24H17.5631ZM23.8988 23.44L22.6188 17.26C22.5854 17.1133 22.6154 16.9833 22.7088 16.87C22.8088 16.7567 22.9321 16.7 23.0788 16.7H23.3688C23.5354 16.7 23.6788 16.7533 23.7988 16.86C23.9188 16.9667 23.9921 17.1 24.0188 17.26L24.8488 22.52C24.8488 22.5267 24.8521 22.53 24.8587 22.53C24.8721 22.53 24.8788 22.5267 24.8788 22.52L25.6788 17.26C25.7054 17.1 25.7788 16.9667 25.8988 16.86C26.0188 16.7533 26.1621 16.7 26.3288 16.7H26.9288C27.0954 16.7 27.2388 16.7533 27.3587 16.86C27.4788 16.9667 27.5521 17.1 27.5788 17.26L28.3888 22.52C28.3888 22.5267 28.3921 22.53 28.3988 22.53C28.4054 22.53 28.4088 22.5267 28.4088 22.52L29.2388 17.26C29.2654 17.1 29.3388 16.9667 29.4588 16.86C29.5788 16.7533 29.7221 16.7 29.8888 16.7H30.1388C30.2854 16.7 30.4054 16.7567 30.4988 16.87C30.5921 16.9833 30.6254 17.1133 30.5988 17.26L29.3188 23.44C29.2854 23.6 29.2054 23.7333 29.0788 23.84C28.9521 23.9467 28.8054 24 28.6388 24H28.1088C27.9421 24 27.7954 23.9467 27.6688 23.84C27.5488 23.7333 27.4754 23.6 27.4488 23.44L26.6188 18.18C26.6188 18.1733 26.6154 18.17 26.6088 18.17C26.6021 18.17 26.5988 18.1733 26.5988 18.18L25.7688 23.44C25.7421 23.6 25.6654 23.7333 25.5388 23.84C25.4188 23.9467 25.2754 24 25.1088 24H24.5788C24.4121 24 24.2654 23.9467 24.1388 23.84C24.0121 23.7333 23.9321 23.6 23.8988 23.44Z" fill="white"/>
</svg>
